<svg xmlns="http://www.w3.org/2000/svg" width="500" height="500" viewBox="0 0 500 500">
  <style type="text/css">
    .st0{fill-rule:evenodd;clip-rule:evenodd;fill:#160202;}
    .st1{fill:#D9CD8D;}
  </style>
  <path class="st0" d="M436.6,500H63.4C28.4,500,0,471.6,0,436.6V63.4C0,28.4,28.4,0,63.4,0h373.1c35,0,63.4,28.4,63.4,63.4v373.1
	C500,471.6,471.6,500,436.6,500z"/>
  <g>
    <path class="st1" d="M128.3,123.9l26.4,114.5c5.7,26.9,11.4,54.4,16.1,81.8h1c5.2-27.5,13.5-55.4,20.7-81.3l32.6-115h51.8
		l31.6,111.9c7.8,29.5,14.5,57,20.2,84.4h1c4.1-27.5,9.8-54.9,16.6-84.4l28-111.9H437l-79.3,252.3h-59.1l-30-102.6
		c-7.8-26.4-13.5-50.2-19.2-80.8h-1c-5.2,31.1-11.9,55.9-19.2,80.8l-32.1,102.6h-59.6L63,123.9H128.3z"/>
  </g>
</svg>
